<svg width="53" height="53" viewBox="0 0 53 53" fill="none" xmlns="http://www.w3.org/2000/svg">
<rect width="52.8553" height="52.8553" rx="12.0126" fill="#4268FB"/>
<g clip-path="url(#clip0_67_70)">
<path d="M15.8526 35.5856L11 40.6384L12.2225 41.838C13.8353 43.4199 16.4119 43.382 17.9777 41.7517L21.0781 38.5234C19.1218 37.9982 17.3259 36.9885 15.8526 35.5856Z" fill="white"/>
<path d="M33.9641 29.8125C32.5942 31.7136 30.2509 32.8707 27.8973 32.9799C24.4669 33.2992 21.0837 31.3798 19.4895 28.3111C15.9868 22.0506 21.2247 14.0226 28.3304 15.0513C30.0151 15.2615 31.4765 15.9921 32.7367 17.1339C32.7515 17.1456 32.7698 17.1517 32.7886 17.1513C32.8073 17.1509 32.8253 17.1439 32.8396 17.1316L32.8464 17.1256C33.2177 16.1707 33.7735 15.3002 34.4813 14.5648C35.1891 13.8295 36.0347 13.2439 36.9688 12.8425C34.0211 9.99954 29.8822 8.69195 25.8525 9.06116C13.6005 10.1456 7.91509 25.0574 16.2755 34.1765C23.7031 41.8578 34.9508 39.8714 39.4412 32.1406C37.872 33.3629 35.9459 34.0243 33.9649 34.0212L33.9641 29.8125Z" fill="white"/>
<path d="M35.7642 21.268L41.2784 21.2392V25.9481C41.2784 29.5223 38.413 32.4197 34.8785 32.4197V21.239L35.7642 21.268Z" fill="white"/>
<path d="M31.6175 26.9771C28.4782 26.0231 26.2606 23.6917 26.2606 20.9666H30.6094C30.6742 21.0192 30.7371 21.0739 30.7981 21.1307C31.0716 21.3765 31.2202 21.6587 31.3443 21.9601C31.394 22.129 31.4188 22.2995 31.4934 22.4692C32.2879 23.7518 31.9644 25.1473 31.9899 26.5052C31.9402 26.3543 31.8161 26.4675 31.7664 26.524C31.6175 26.6374 31.667 26.8071 31.6175 26.9771ZM40.9796 20.9666H30.6133C30.6783 21.0192 30.7412 21.0739 30.802 21.1306C31.0755 21.3763 31.224 21.6584 31.3479 21.9599C31.3976 22.1296 31.4224 22.2992 31.4969 22.4689C32.2911 23.7508 31.9679 25.1458 31.9933 26.5032C31.9437 26.3523 31.8196 26.4654 31.7699 26.5219C31.621 26.6351 31.6707 26.8048 31.621 26.9743C32.5987 27.2715 33.6657 27.4351 34.7831 27.4351H40.9804L40.9424 21.8615L40.9796 20.9666Z" fill="white"/>
<path d="M34.9717 26.6154L34.9437 21.0417H39.6008C43.1353 21.0417 46.0006 23.938 46.0006 27.5106H34.9437L34.9717 26.6154Z" fill="white"/>
<path d="M40.41 26.6054L35.1209 26.633V22.1185C35.1209 18.6921 37.8692 15.9138 41.2594 15.9138V26.6324L40.41 26.6054Z" fill="white"/>
</g>
<defs>
<clipPath id="clip0_67_70">
<rect width="35" height="34" fill="white" transform="translate(11 9)"/>
</clipPath>
</defs>
</svg>
